<svg width="500" height="150" viewBox="0 0 500 150" fill="none" xmlns="http://www.w3.org/2000/svg">
<path d="M274.635 94.5801C267.31 109.75 262.23 110.775 258.075 110.525C254.51 109.8 254.28 98.9701 255.86 91.5251C257.115 92.6951 259.27 93.6851 263.005 93.6851C272.08 93.6851 279.71 81.1851 279.71 73.5451C279.71 68.4701 274.085 58.3151 265.465 58.3151C259.64 58.3151 246.23 72.1051 242.385 87.9301C234.83 103.765 230.295 108.715 227.71 106.125C224.26 102.675 240.185 65.2801 249.36 42.5901C254.065 30.9451 240.315 27.9351 237.95 30.3001C238.73 34.9401 231.395 51.6601 224.82 68.2451C223.97 61.2051 220.37 57.9351 215.27 58.0651C205.77 58.3151 196.42 70.7551 191.205 84.2451C182.82 100.5 176.045 110.15 173.55 107.245C169.99 103.095 185.55 72.4651 185.55 67.6601C185.55 62.8551 180.18 57.9901 174.58 60.0601C173.829 63.1023 172.87 66.0893 171.71 69.0001C170.94 61.6851 167.88 58.2051 162.74 58.2051C149.42 58.2051 136.09 82.6701 134.89 100.38C134.285 109.305 140.975 117.42 147.57 117.42C152.285 117.42 157.44 111.92 160.495 105.075C160.465 105.545 160.445 106.075 160.43 106.575C160.27 111.89 165.5 117.285 170.705 117.285C178.89 117.285 184.08 107.59 187.1 101.515C186.88 110.015 194.57 117.415 199.51 117.19C205.46 116.915 210.195 109.22 214.81 101.41C214.66 102.64 214.565 103.83 214.515 104.97C214.245 111.105 219.775 117.435 224.26 117.435C232.565 117.435 238.76 107.525 241.885 101.235C244.035 110.69 252 117.235 257.645 117.235C269.875 117.235 279.065 106.77 279.31 101.69C279.555 96.6101 274.635 94.5801 274.635 94.5801ZM150.385 105.58C143.08 105.58 157.555 66.4701 163.385 66.4701C167.795 66.4701 166.54 77.3601 165.675 82.6251C162.79 89.9101 156 105.56 150.385 105.56V105.58ZM202.61 105.355C195.27 105.55 209.865 66.4051 215.71 66.2501C220.28 66.1301 219.065 77.6201 218.31 82.6551C215.15 90.1351 208.125 105.195 202.61 105.335V105.355ZM271.83 67.3551C273.8 67.3551 269.25 88.0651 259.91 88.0651C258.848 88.0636 257.829 87.6474 257.07 86.9051C260.265 76.5901 266.47 67.3251 271.83 67.3251V67.3551Z" fill="#4C515D"/>
<path d="M128.08 113.655C124.645 81.1551 143.705 53.9801 143.25 49.4501C142.795 44.9201 133.46 38.8201 133.46 38.8201C122.665 49.9151 109.46 69.9801 101.85 82.1701C110.85 50.7701 120.815 35.4551 120.255 29.8751C119.655 23.9301 109.97 20.8101 109.97 20.8101C90.9349 43.6551 78.2999 63.1601 73.6349 75.0301C73.6349 75.0301 82.8349 51.8101 81.7599 41.1051C80.6849 30.4001 68.6299 27.4301 60.6899 28.1801C35.9999 30.5001 18.7849 51.8301 20.3849 67.7651C22.5399 89.1801 47.8049 85.1401 47.0749 77.9201C44.5449 77.9201 36.8499 75.9201 35.7449 64.9201C33.8649 46.2201 61.5399 30.0501 68.4349 35.2601C73.4349 39.0351 66.4349 63.0701 51.6949 100.76C47.6949 109.71 62.3599 111.76 62.3599 111.76C75.3249 82.3601 93.2699 56.6051 101.36 45.6601C95.4049 62.6601 84.3349 95.1601 84.3599 102.25C84.3599 111.97 94.8299 110.045 94.8299 110.045C103.521 92.8975 113.789 76.5956 125.5 61.3501C116.085 80.8001 109.55 99.5901 111.415 117.26C113.75 139.345 133.08 135.04 135.855 132.22C135.85 132.22 129.725 129.24 128.08 113.655Z" fill="#4C515D"/>
<path d="M413.76 44.0449C414.3 45.3199 419.68 47.1049 424.26 42.8199C428.84 38.5349 430.915 30.9699 430.915 30.9699C430.915 30.9699 421.77 26.5899 419.065 28.7349C416.36 30.8799 413 42.2699 413.76 44.0449Z" fill="#4C515D"/>
<path d="M467.575 82.9598C462.794 82.9891 458.022 83.3802 453.3 84.1298C451.715 79.1798 450.005 74.8898 450.005 70.4298C449.958 68.5285 450.492 66.6582 451.536 65.0681C452.579 63.4781 454.082 62.2438 455.845 61.5298C455.845 61.5298 453.45 53.3548 446.65 53.3548C443.795 53.3548 436.725 57.9748 436.725 66.7798C436.725 66.9248 436.725 67.0648 436.725 67.2098C425.905 86.0698 409.15 111.71 402.855 105.42C399.305 101.875 417.505 68.5498 417.505 64.2448C417.505 59.9398 412.095 57.0448 405.18 59.0848C404.605 63.2248 399.035 73.0298 394.43 83.3998C383.74 99.0398 374.785 108.185 371.975 105.37C368.475 101.87 384.75 74.1048 384.75 69.1198C384.75 64.1348 381 58.4998 374.535 58.4998C367.535 58.4998 356.385 69.7598 347.39 84.3998C352.075 72.3048 359.27 57.1448 364.945 45.6498C368.155 46.7098 371.38 47.7598 374.595 48.7898C396.825 55.9048 406.375 45.4048 409.595 35.9198C412.015 28.7548 407.86 15.8648 388.595 15.4598C373.94 15.1498 365.285 21.3948 358.455 31.4248C358.455 31.4248 330.385 19.8448 310.65 16.9248C272.305 11.3148 265.55 28.4998 267.305 40.3548C268.855 50.8248 285.555 58.5748 288.835 47.2748C285.74 46.4998 282.695 42.9998 282.57 38.5948C282.165 24.2298 304.955 27.9998 323.215 32.5498C325.39 33.0948 327.795 33.7548 330.265 34.4748C318.5 59.4998 285.35 125.93 307.5 129.365C313.71 130.18 316.16 125.835 316.16 125.835C311.07 109.22 333.5 55.8898 342.43 38.2198C347.87 39.9698 352.04 41.4048 352.515 41.5648C340.945 65.2398 326.815 98.6848 326.815 109.79C326.815 116.53 337.54 117.325 337.54 117.325C337.54 117.325 337.54 117.205 337.575 117.145L337.615 117.28C347.455 85.5948 367.195 67.4148 369.935 70.1548C371.985 72.2098 356.89 92.7748 356.265 106.01C356.06 110.425 362.07 117.215 367.215 117.215C375.85 117.215 383.425 109.505 388.32 102.925C388.32 103.02 388.32 103.12 388.29 103.215C387.725 109.94 392.265 116.61 399.79 116.61C406.675 116.61 413.045 112.35 418.56 106.495C418.53 106.87 418.5 107.24 418.5 107.625C418.5 114.065 425.4 117.84 433.58 117.625C447.405 117.255 455.61 108.4 455.61 98.0148C455.61 97.5148 455.585 97.0448 455.565 96.5648C458.78 96.2598 461.98 95.8348 465.615 95.8348C474.015 95.8348 475.87 101.24 475.87 101.24C481.5 101.235 483.56 82.9598 467.575 82.9598ZM390.44 26.1498C398.94 26.5598 407.125 31.3148 405.34 35.8698C403.01 41.8298 392.725 43.0298 383.135 40.8698C379.725 40.0898 375.36 38.4448 370.25 36.3698C377.19 26.0448 383.04 25.7948 390.44 26.1498ZM437.84 74.9148C438.745 78.6848 439.98 82.4998 440.7 86.9498C436.699 88.1441 432.854 89.8091 429.245 91.9098C432.485 86.4423 435.356 80.7647 437.84 74.9148ZM428.37 110.375C421.93 110.375 423.165 102.68 440.735 98.8998C439.11 106.5 434 110.375 428.37 110.375Z" fill="#4C515D"/>
</svg>
